<svg width="146" height="152" viewBox="0 0 146 152" fill="none" xmlns="http://www.w3.org/2000/svg">
<g filter="url(#filter0_d_237_194)">
<path d="M84 62C85.9333 62 87.5833 61.3167 88.95 59.95C90.3167 58.5833 91 56.9333 91 55C91 53.0667 90.3167 51.4167 88.95 50.05C87.5833 48.6833 85.9333 48 84 48C82.0667 48 80.4167 48.6833 79.05 50.05C77.6833 51.4167 77 53.0667 77 55C77 56.9333 77.6833 58.5833 79.05 59.95C80.4167 61.3167 82.0667 62 84 62ZM84 65C81.2333 65 78.875 64.025 76.925 62.075C74.975 60.125 74 57.7667 74 55C74 52.2333 74.975 49.875 76.925 47.925C78.875 45.975 81.2333 45 84 45C86.7667 45 89.125 45.975 91.075 47.925C93.025 49.875 94 52.2333 94 55C94 57.7667 93.025 60.125 91.075 62.075C89.125 64.025 86.7667 65 84 65ZM63.5 56.5C63.0667 56.5 62.7083 56.3583 62.425 56.075C62.1417 55.7917 62 55.4333 62 55C62 54.5667 62.1417 54.2083 62.425 53.925C62.7083 53.6417 63.0667 53.5 63.5 53.5H68.5C68.9333 53.5 69.2917 53.6417 69.575 53.925C69.8583 54.2083 70 54.5667 70 55C70 55.4333 69.8583 55.7917 69.575 56.075C69.2917 56.3583 68.9333 56.5 68.5 56.5H63.5ZM99.5 56.5C99.0667 56.5 98.7083 56.3583 98.425 56.075C98.1417 55.7917 98 55.4333 98 55C98 54.5667 98.1417 54.2083 98.425 53.925C98.7083 53.6417 99.0667 53.5 99.5 53.5H104.5C104.933 53.5 105.292 53.6417 105.575 53.925C105.858 54.2083 106 54.5667 106 55C106 55.4333 105.858 55.7917 105.575 56.075C105.292 56.3583 104.933 56.5 104.5 56.5H99.5ZM84 41C83.5667 41 83.2083 40.8583 82.925 40.575C82.6417 40.2917 82.5 39.9333 82.5 39.5V34.5C82.5 34.0667 82.6417 33.7083 82.925 33.425C83.2083 33.1417 83.5667 33 84 33C84.4333 33 84.7917 33.1417 85.075 33.425C85.3583 33.7083 85.5 34.0667 85.5 34.5V39.5C85.5 39.9333 85.3583 40.2917 85.075 40.575C84.7917 40.8583 84.4333 41 84 41ZM84 77C83.5667 77 83.2083 76.8583 82.925 76.575C82.6417 76.2917 82.5 75.9333 82.5 75.5V70.5C82.5 70.0667 82.6417 69.7083 82.925 69.425C83.2083 69.1417 83.5667 69 84 69C84.4333 69 84.7917 69.1417 85.075 69.425C85.3583 69.7083 85.5 70.0667 85.5 70.5V75.5C85.5 75.9333 85.3583 76.2917 85.075 76.575C84.7917 76.8583 84.4333 77 84 77ZM72 45.1L69.15 42.3C68.85 42 68.7083 41.6417 68.725 41.225C68.7417 40.8083 68.8833 40.45 69.15 40.15C69.45 39.85 69.8083 39.7 70.225 39.7C70.6417 39.7 71 39.85 71.3 40.15L74.1 43C74.3667 43.3 74.5 43.65 74.5 44.05C74.5 44.45 74.3667 44.7833 74.1 45.05C73.8333 45.35 73.4917 45.5 73.075 45.5C72.6583 45.5 72.3 45.3667 72 45.1ZM96.7 69.85L93.9 67C93.6333 66.7 93.5 66.3417 93.5 65.925C93.5 65.5083 93.65 65.1667 93.95 64.9C94.2167 64.6 94.55 64.45 94.95 64.45C95.35 64.45 95.7 64.6 96 64.9L98.85 67.7C99.15 68 99.2917 68.3583 99.275 68.775C99.2583 69.1917 99.1167 69.55 98.85 69.85C98.55 70.15 98.1917 70.3 97.775 70.3C97.3583 70.3 97 70.15 96.7 69.85ZM93.9 45.1C93.6 44.8 93.45 44.45 93.45 44.05C93.45 43.65 93.6 43.3 93.9 43L96.7 40.15C97 39.85 97.3583 39.7083 97.775 39.725C98.1917 39.7417 98.55 39.8833 98.85 40.15C99.15 40.45 99.3 40.8083 99.3 41.225C99.3 41.6417 99.15 42 98.85 42.3L96 45.1C95.7333 45.3667 95.3917 45.5 94.975 45.5C94.5583 45.5 94.2 45.3667 93.9 45.1ZM69.15 69.85C68.85 69.55 68.7 69.1917 68.7 68.775C68.7 68.3583 68.85 68 69.15 67.7L72 64.9C72.3 64.6 72.65 64.45 73.05 64.45C73.45 64.45 73.8 64.6 74.1 64.9C74.4 65.2 74.55 65.55 74.55 65.95C74.55 66.35 74.4 66.7 74.1 67L71.3 69.85C71 70.15 70.6417 70.2917 70.225 70.275C69.8083 70.2583 69.45 70.1167 69.15 69.85Z" fill="#D78811"/>
</g>
<defs>
<filter id="filter0_d_237_194" x="0" y="0" width="152" height="152" filterUnits="userSpaceOnUse" color-interpolation-filters="sRGB">
<feFlood flood-opacity="0" result="BackgroundImageFix"/>
<feColorMatrix in="SourceAlpha" type="matrix" values="0 0 0 0 0 0 0 0 0 0 0 0 0 0 0 0 0 0 127 0" result="hardAlpha"/>
<feOffset dx="-8" dy="21"/>
<feGaussianBlur stdDeviation="27"/>
<feComposite in2="hardAlpha" operator="out"/>
<feColorMatrix type="matrix" values="0 0 0 0 0.843137 0 0 0 0 0.533333 0 0 0 0 0.0666667 0 0 0 0.8 0"/>
<feBlend mode="normal" in2="BackgroundImageFix" result="effect1_dropShadow_237_194"/>
<feBlend mode="normal" in="SourceGraphic" in2="effect1_dropShadow_237_194" result="shape"/>
</filter>
</defs>
</svg>
